<svg width="80" height="81" viewBox="0 0 80 81" fill="none" xmlns="http://www.w3.org/2000/svg">
<path fill-rule="evenodd" clip-rule="evenodd" d="M28.0707 0.275879C27.2952 0.275879 26.6666 0.904523 26.6666 1.68V26.9425C11.939 26.9426 0 38.8816 0 53.6092C0 68.3368 11.9391 80.2759 26.6667 80.2759H51.9292C52.7047 80.2759 53.3333 79.6472 53.3333 78.8717V53.6092C68.0609 53.6091 79.9999 41.6701 79.9999 26.9425C79.9999 12.2149 68.0608 0.275879 53.3332 0.275879H28.0707ZM53.3333 53.6092V28.3466C53.3333 27.5712 52.7047 26.9425 51.9292 26.9425H26.6667C26.6666 26.9425 26.6666 26.9425 26.6666 26.9425V52.2051C26.6666 52.9806 27.2952 53.6092 28.0707 53.6092H53.3332C53.3333 53.6092 53.3333 53.6092 53.3333 53.6092Z" fill="#CB3CFF"/>
<path d="M28.9195 0.275879C27.675 0.275879 26.666 1.28481 26.666 2.5294L26.666 26.9425H51.0792C52.3237 26.9425 53.3327 27.9515 53.3327 29.1961L53.3327 53.6092C68.0603 53.6092 79.9994 41.6701 79.9994 26.9425C79.9994 12.215 68.0603 0.275879 53.3327 0.275879H28.9195Z" fill="#00C2FF"/>
</svg>
